<svg xmlns="http://www.w3.org/2000/svg" viewBox="0 0 800 701.24"><defs><style>.cls-1{fill:#31bcaf;}</style></defs><g id="Layer_2" data-name="Layer 2"><g id="Layer_1-2" data-name="Layer 1"><path class="cls-1" d="M715.4,339.49v1.18c.09-.31.21-.62.3-.92A1.74,1.74,0,0,0,715.4,339.49Zm-65.86-102a7.89,7.89,0,0,0,1.2-3.59C650.33,235.08,649.93,236.27,649.54,237.47Z"/><path class="cls-1" d="M193.34,701c-8.59-3.41-17.57-5.73-25.26-11.38-23.56-17.33-32.23-47.78-20.82-74.39a61.91,61.91,0,0,1,68.19-36.44c27.67,5.29,49.32,30.16,50,57.41.72,30.84-18.14,56.11-47.17,63.24-1.6.4-3.14,1-4.7,1.56Z"/><path class="cls-1" d="M534.47,701.24c-8.59-3.41-17.57-5.73-25.26-11.38-23.56-17.33-32.23-47.78-20.82-74.4A61.93,61.93,0,0,1,556.59,579c27.66,5.28,49.31,30.16,49.95,57.41.72,30.84-18.14,56.11-47.17,63.24-1.6.4-3.14,1-4.7,1.56Z"/><path class="cls-1" d="M715.7,339.75c-.09.3-.21.61-.3.92v-1.18A1.74,1.74,0,0,1,715.7,339.75Z"/><path class="cls-1" d="M620.52,129.23a42,42,0,0,1-36.19,20.85c-57.33.1-14.46,0-71.8.2-6.76,0-10-1.22-11.39-8.89-4.1-22.64-6.53-45.69-13.53-67.72C477.78,42.73,458.92,20,427.67,8.41,403-.8,377.72-1.19,351.93,1.34c-42.13,4.14-76.51,32.59-88.07,73.27-6.23,21.93-9,44.54-13.2,66.84-1.3,6.84-3.72,8.83-10.53,8.77q-55.87-.47-111.74-.06A216.6,216.6,0,0,0,77,156.23C30.25,168,12.16,197.86,4.74,233.17-2.34,266.82-1.72,300.76,8.17,334c7.76,26.14,23.74,45.54,48.79,57.2,22,10.28,45.58,12.84,69.31,12.86q250.94.4,501.84.19c4.49,0,9,.43,13.43.71,8.41.56,12.9,5.88,16.15,13,5.67,12.36,3.9,25.35,2.64,37.95-1.4,14.15-11.25,21.72-25.76,21.86-19.58.19-39.18.09-58.77.13-14.24,0-14.2.06-16.51-13.55-.77-4.43-1.89-8.78-2.64-13.2-.54-3.16-1.91-5-5.26-5.91-28.68-7.81-57.3-15.81-86-23.71-4.07-1.14-5.22.6-4.49,4.51,2.56,13.49,4.88,27,7.57,40.51,2.28,11.35,2.47,11.33-8.71,11.33q-80.42,0-160.85,0c-17.54,0-17.52,0-14.07-17.65.37-1.89.29-3.87.77-5.72,1.66-6.23-.82-9.06-6.91-10.82-24.54-7.09-48.94-14.59-73.36-22.08-4.31-1.33-5.6.11-6.26,4.26-2.14,13.6-5.47,27.09-6.69,40.76-.83,9.27-4.24,11.5-13.08,11.45-56.51-.37-113,0-169.53-.31-7.26,0-9.36,1.93-9.23,9.13.43,23.44.54,46.89-.06,70.31-.21,8.44,2,10.75,10.6,10.72,104.67-.31,209.34-.2,314-.22q148.33,0,296.69.08c19.37,0,38.41-1.68,57-7,29.39-8.48,51.24-25.91,61.82-55.26,14.23-39.55,14.26-79.83,3.24-120-5.34-19.45-14.9-34.56-28.2-45.69-.09.3-.21.61-.3.92v-1.18c-11.55-9.63-25.89-16.3-42.63-20.31-22.71-5.43-45.82-5.11-68.9-5.14q-31.79,0-63.57,0c-4.29,0-8.21.09-9.21-5.82-3.33-19.57-7-39.07-10.62-58.61-1.23-6.67-.56-10,8.27-10,62.21.43,24.23.23,86.44.39q13.1.06,26.21.09c4.32,0,6.8-.73,8.13-2.64a0,0,0,0,1,0,0c.39-1.2.79-2.39,1.2-3.59q21.27-64,42.61-128c4-11.93,11.1-17,23.68-17.06,17.08-.07,34.14,0,51.21,0a35.37,35.37,0,0,0,8.54-.91A30.79,30.79,0,0,0,799.7,53.41c-2-14.95-15.17-26.21-31.4-26.33-29.58-.17-59.15-.09-88.71,0-16.94,0-27.41,7.55-32.88,23.72-8.81,26.11-17.44,52.29-26.19,78.44ZM231.69,247c-3.87,20.75-7.48,41.55-11.12,62.33-.73,4.25-3.8,4.74-7.13,4.74-32.71,0-65.41.07-98.12-.22-11.85-.09-20.37-6-22.91-17.86-2.82-13.2-3.43-26.56.79-39.78,3.39-10.64,11-15.51,21.56-15.67,18.6-.29,37.18-.08,55.78-.08v-.54c18,0,35.92.22,53.87-.13C230.05,239.62,232.9,240.41,231.69,247Zm201.65,67.12q-14.43,0-28.85,0H375.62q-8,0-16,0c-13.59,0-27.19-.08-40.8.11-6.73.1-7.88-2-6.67-8.57,6-32.05,11.16-64.26,17.06-96.35,6.76-36.77,13.66-73.5,21.14-110.14,2.83-13.92,10.76-19,25.69-19.1,14.46-.1,22.47,5.36,25.42,19.45,5.24,25,9.6,50.26,14.3,75.39q8.32,44.74,16.62,89.5c2.64,14.48,5,29,7.63,43.5C441.13,313.77,437.64,314.07,433.34,314.07Z"/></g></g></svg>